<svg xmlns="http://www.w3.org/2000/svg" width="737" height="737" viewBox="0 0 737 737"><defs><linearGradient id="4jula" x1="368.5" x2="368.5" y1="0" y2="737" gradientUnits="userSpaceOnUse"><stop offset="0" stop-color="#151517"/><stop offset="1" stop-color="#3e3f43"/></linearGradient><filter id="4julb" width="200%" height="200%" x="-50%" y="-50%"><feGaussianBlur in="SourceGraphic" result="FeGaussianBlur1389Out" stdDeviation="10 10"/></filter><mask id="4julc"><path fill="#fff" d="M0 368.5C0 164.983 164.983 0 368.5 0S737 164.983 737 368.5 572.017 737 368.5 737 0 572.017 0 368.5z"/></mask><linearGradient id="4juld" x1="368.5" x2="368.5" y1="40" y2="697" gradientUnits="userSpaceOnUse"><stop offset="0" stop-color="#3e3f43" stop-opacity=".2"/><stop offset="1" stop-color="#3e3f43"/></linearGradient><filter id="4jule" width="200%" height="200%" x="-50%" y="-50%"><feGaussianBlur in="SourceGraphic" result="FeGaussianBlur1402Out" stdDeviation="10 10"/></filter><mask id="4julf"><path fill="#fff" d="M40 368.5C40 187.074 187.074 40 368.5 40S697 187.074 697 368.5 549.926 697 368.5 697 40 549.926 40 368.5z"/></mask><radialGradient id="4julg" cx="368" cy="369" r="280" gradientUnits="userSpaceOnUse"><stop offset="0" stop-color="#f97700"/><stop offset="1" stop-color="#f83c00"/></radialGradient><filter id="4julh" width="200%" height="200%" x="-50%" y="-50%"><feGaussianBlur in="SourceGraphic" result="FeGaussianBlur1415Out" stdDeviation="10 10"/></filter><mask id="4juli"><path fill="#fff" d="M648 369c0 154.64-125.36 280-280 280S88 523.64 88 369 213.36 89 368 89s280 125.36 280 280z"/></mask></defs><g><g><path fill="url(#4jula)" d="M0 368.5C0 164.983 164.983 0 368.5 0S737 164.983 737 368.5 572.017 737 368.5 737 0 572.017 0 368.5z"/><path fill-opacity=".5" d="M-20 761V-24h777v785zm388.5-20C572.017 741 737 576.017 737 372.5S572.017 4 368.5 4 0 168.983 0 372.5 164.983 741 368.5 741z" filter="url(#4julb)" mask="url(&quot;#4julc&quot;)"/></g><g><path fill="url(#4juld)" d="M40 368.5C40 187.074 187.074 40 368.5 40S697 187.074 697 368.5 549.926 697 368.5 697 40 549.926 40 368.5z"/><path fill-opacity=".5" d="M20 721V16h697v705zm348.5-20C549.926 701 697 553.926 697 372.5S549.926 44 368.5 44 40 191.074 40 372.5 187.074 701 368.5 701z" filter="url(#4jule)" mask="url(&quot;#4julf&quot;)"/></g><g><path fill="url(#4julg)" d="M648 369c0 154.64-125.36 280-280 280S88 523.64 88 369 213.36 89 368 89s280 125.36 280 280z"/><path fill-opacity=".5" d="M68 673V65h600v608zM368 93C213.36 93 88 218.36 88 373s125.36 280 280 280 280-125.36 280-280S522.64 93 368 93z" filter="url(#4julh)" mask="url(&quot;#4juli&quot;)"/></g><g><g><path fill="#fff" d="M458.025 466.67c-3.412-5.128-7.677-12.821-10.236-20.514-11.943-37.61 28.15-58.979-11.943-112.828l-7.678-8.548c-15.354-16.24-47.77-25.643-72.508-19.66-8.531 1.71-15.355 5.13-22.18 8.548-8.53 5.129-11.09 7.693-17.06 13.676-9.384 11.112-5.972 5.129-13.65 18.805-6.824 11.967-29.003 38.464-36.68 41.028-5.119.855-8.53-1.709-5.972-7.692 1.706-1.71 7.678-5.984 9.384-7.693l21.326-24.788c8.53-13.676 13.649-24.788 28.15-35.045 43.506-32.481 103.219-23.079 131.37 21.369 31.562 48.721 2.559 76.073 6.824 102.571 4.265 26.497 23.885 29.916 21.326 41.028-8.53 4.274-14.502-5.128-20.473-10.257zm-66.538-10.257c3.413-10.257 13.649-7.693 9.384 4.274-2.559 7.693-2.559 15.386-.853 23.933 4.265 17.095 15.355 23.933 25.591 30.772.853 23.933-48.623-16.241-34.122-58.979zm-62.272 61.543c6.824-5.984 19.62-16.241 28.151-18.805 18.767-5.129 29.003 12.821 32.415 28.207.853 4.274.853 9.403-5.118 8.548-7.677-1.71-5.971-25.643-19.62-27.353-5.971-.854-17.914 6.839-21.326 9.403-14.502 11.112-11.09 11.966-18.767 9.402-.853-5.983 0-7.693 4.265-9.402zM493 413.675c-5.971 14.531-1.706 37.609-15.355 34.19-4.265-11.111 13.649-32.48.853-79.492-3.412-12.822-8.53-18.805-4.265-23.079 11.943-11.112 16.208 40.174 18.767 47.867zm-212.409 68.381c15.355-11.112 18.767-15.386 31.563-25.643 5.118-3.419 9.384-9.402 13.649-13.676 12.796-12.822 14.502-14.531 26.444-29.917 10.237-12.821 20.473-34.19 26.445-24.788 5.118 8.548-42.653 59.833-47.77 64.107-5.12 5.129-10.237 8.548-15.356 13.676-6.824 7.693-30.71 25.643-39.24 31.627-3.412 1.709-5.118 2.564-9.383.854-1.706-7.693 7.677-11.112 13.648-16.24zm177.434-205.997c-23.032-21.37-65.685-34.19-98.1-29.917-26.445 3.42-60.567 17.95-76.775 35.9-3.412 2.564-7.677 8.548-10.236 9.402-14.502 4.274-6.824-18.804 37.534-42.738 46.918-23.933 104.072-17.95 145.871 12.822 8.53 5.983 18.767 11.966 14.502 19.66-6.825 1.709-9.384-2.565-12.796-5.13zm-29.004 15.385c-33.268-20.514-70.802-22.223-106.63-2.564-17.914 9.402-36.681 28.207-47.77 43.593-2.56 2.564-7.678 11.966-9.384 13.676-5.972 6.838-11.943-.855-6.825-8.548 10.237-17.095 29.857-37.609 44.359-48.72 53.742-41.03 119.426-28.208 162.078 17.949 6.825 7.693 19.621 18.805 14.502 26.498-11.089.854-15.355-21.37-50.33-41.884zm-165.49 127.36c6.824-5.129 20.473-16.241 24.738-22.224 11.942-17.095 13.649-17.095 23.885-37.61 27.298-49.576 92.129-46.157 116.014-5.128 19.621 34.19-8.53 70.945 5.119 105.135 8.53 21.369 25.591 30.772 28.15 33.336 2.559 3.419.853 7.693-4.265 7.693-7.677 0-40.946-26.498-38.387-69.236 1.706-32.481 20.473-67.526-20.473-91.459-13.649-7.693-33.269-9.402-48.624-2.564-32.416 14.531-23.885 38.464-71.656 82.057-8.53 8.547-11.942 11.111-18.767 9.402-1.706-6.838-.853-6.838 4.265-9.402zM255 462.396c3.412-2.564 6.824-5.128 11.943-8.547 3.412-2.564 5.971-4.274 9.383-6.838 6.825-5.129 12.796-10.257 18.767-15.386 3.412-2.564 5.119-5.129 8.53-8.548 3.413-3.419 4.266-4.273 7.678-8.547 2.56-2.564 5.118-5.129 7.678-8.548 11.942-17.095 25.59-39.319 36.681-47.012 17.06-11.966 40.093-3.419 48.623 8.548 22.179 31.626-24.738 82.057-40.946 100.007l-8.53 8.548c-3.413 2.564-5.119 5.983-8.531 8.547-13.649 11.967-24.738 19.66-38.387 29.917-10.237 7.693-17.061-.855-4.265-9.403 7.677-5.128 29.003-21.369 34.975-27.352 2.559-3.419 5.118-5.128 8.53-7.693 6.824-5.983 9.384-10.257 15.355-16.24 9.383-9.403 19.62-25.643 26.444-36.755 3.412-5.983 7.678-13.676 9.384-21.369 7.677-27.352-28.151-45.302-47.77-17.95-9.384 12.822-16.209 25.643-26.445 36.755-5.118 5.983-10.237 11.966-15.355 17.095l-33.269 29.062c-5.971 3.419-14.502 12.821-20.473 5.983z"/></g></g></g></svg>