<svg xmlns="http://www.w3.org/2000/svg" width="633" height="633" viewBox="0 0 633 633"><defs><linearGradient id="v09ga" x1="316.5" x2="316.5" y1="0" y2="633" gradientUnits="userSpaceOnUse"><stop offset="0" stop-color="#151517"/><stop offset="1" stop-color="#3e3f43"/></linearGradient><filter id="v09gb" width="200%" height="200%" x="-50%" y="-50%"><feGaussianBlur in="SourceGraphic" result="FeGaussianBlur1346Out" stdDeviation="10 10"/></filter><mask id="v09gc"><path fill="#fff" d="M0 316.5C0 141.702 141.702 0 316.5 0S633 141.702 633 316.5 491.298 633 316.5 633 0 491.298 0 316.5z"/></mask><linearGradient id="v09gd" x1="316.5" x2="316.5" y1="34" y2="599" gradientUnits="userSpaceOnUse"><stop offset="0" stop-color="#3e3f43" stop-opacity=".2"/><stop offset="1" stop-color="#3e3f43"/></linearGradient><filter id="v09ge" width="200%" height="200%" x="-50%" y="-50%"><feGaussianBlur in="SourceGraphic" result="FeGaussianBlur1359Out" stdDeviation="10 10"/></filter><mask id="v09gf"><path fill="#fff" d="M34 316.5C34 160.48 160.48 34 316.5 34 472.52 34 599 160.48 599 316.5 599 472.52 472.52 599 316.5 599 160.48 599 34 472.52 34 316.5z"/></mask><radialGradient id="v09gg" cx="316" cy="317" r="240" gradientUnits="userSpaceOnUse"><stop offset="0" stop-color="#f97700"/><stop offset="1" stop-color="#f83c00"/></radialGradient><filter id="v09gh" width="200%" height="200%" x="-50%" y="-50%"><feGaussianBlur in="SourceGraphic" result="FeGaussianBlur1372Out" stdDeviation="10 10"/></filter><mask id="v09gi"><path fill="#fff" d="M556 317c0 132.548-107.452 240-240 240S76 449.548 76 317 183.452 77 316 77s240 107.452 240 240z"/></mask></defs><g><g><path fill="url(#v09ga)" d="M0 316.5C0 141.702 141.702 0 316.5 0S633 141.702 633 316.5 491.298 633 316.5 633 0 491.298 0 316.5z"/><path fill-opacity=".5" d="M-20 657V-24h673v681zm336.5-20C491.298 637 633 495.298 633 320.5S491.298 4 316.5 4 0 145.702 0 320.5 141.702 637 316.5 637z" filter="url(#v09gb)" mask="url(&quot;#v09gc&quot;)"/></g><g><path fill="url(#v09gd)" d="M34 316.5C34 160.48 160.48 34 316.5 34 472.52 34 599 160.48 599 316.5 599 472.52 472.52 599 316.5 599 160.48 599 34 472.52 34 316.5z"/><path fill-opacity=".5" d="M14 623V10h605v613zm302.5-20C472.52 603 599 476.52 599 320.5 599 164.48 472.52 38 316.5 38 160.48 38 34 164.48 34 320.5 34 476.52 160.48 603 316.5 603z" filter="url(#v09ge)" mask="url(&quot;#v09gf&quot;)"/></g><g><path fill="url(#v09gg)" d="M556 317c0 132.548-107.452 240-240 240S76 449.548 76 317 183.452 77 316 77s240 107.452 240 240z"/><path fill-opacity=".5" d="M56 581V53h520v528zM316 81C183.452 81 76 188.452 76 321s107.452 240 240 240 240-107.452 240-240S448.548 81 316 81z" filter="url(#v09gh)" mask="url(&quot;#v09gi&quot;)"/></g></g></svg>