<svg xmlns="http://www.w3.org/2000/svg" width="871" height="871" viewBox="0 0 871 871"><defs><linearGradient id="yjb8a" x1="435.5" x2="435.5" y1="0" y2="871" gradientUnits="userSpaceOnUse"><stop offset="0" stop-color="#151517"/><stop offset="1" stop-color="#3e3f43"/></linearGradient><filter id="yjb8b" width="200%" height="200%" x="-50%" y="-50%"><feGaussianBlur in="SourceGraphic" result="FeGaussianBlur1038Out" stdDeviation="10 10"/></filter><mask id="yjb8c"><path fill="#fff" d="M0 435.5C0 194.98 194.98 0 435.5 0S871 194.98 871 435.5 676.02 871 435.5 871 0 676.02 0 435.5z"/></mask><linearGradient id="yjb8d" x1="435.5" x2="435.5" y1="47" y2="824" gradientUnits="userSpaceOnUse"><stop offset="0" stop-color="#3e3f43" stop-opacity=".2"/><stop offset="1" stop-color="#3e3f43"/></linearGradient><filter id="yjb8e" width="200%" height="200%" x="-50%" y="-50%"><feGaussianBlur in="SourceGraphic" result="FeGaussianBlur1051Out" stdDeviation="10 10"/></filter><mask id="yjb8f"><path fill="#fff" d="M47 435.5C47 220.937 220.937 47 435.5 47S824 220.937 824 435.5 650.063 824 435.5 824 47 650.063 47 435.5z"/></mask><radialGradient id="yjb8g" cx="435.5" cy="440.5" r="342.5" gradientUnits="userSpaceOnUse"><stop offset="0" stop-color="#f97700"/><stop offset="1" stop-color="#f83c00"/></radialGradient><filter id="yjb8h" width="200%" height="200%" x="-50%" y="-50%"><feGaussianBlur in="SourceGraphic" result="FeGaussianBlur1064Out" stdDeviation="10 10"/></filter><mask id="yjb8i"><path fill="#fff" d="M778 440.5C778 629.658 624.658 783 435.5 783S93 629.658 93 440.5 246.342 98 435.5 98 778 251.342 778 440.5z"/></mask><radialGradient id="yjb8j" cx="435.5" cy="440.5" r="342.5" gradientUnits="userSpaceOnUse"><stop offset="0" stop-color="#f97700"/><stop offset="1" stop-color="#f83c00"/></radialGradient><filter id="yjb8k" width="200%" height="200%" x="-50%" y="-50%"><feGaussianBlur in="SourceGraphic" result="FeGaussianBlur1079Out" stdDeviation="10 10"/></filter><mask id="yjb8l"><path fill="#fff" d="M778 440.5C778 629.658 624.658 783 435.5 783S93 629.658 93 440.5 246.342 98 435.5 98 778 251.342 778 440.5z"/></mask><clipPath id="yjb8m"><path d="M778 440.5C778 629.658 624.658 783 435.5 783S93 629.658 93 440.5 246.342 98 435.5 98 778 251.342 778 440.5z"/></clipPath></defs><g><g><path fill="url(#yjb8a)" d="M0 435.5C0 194.98 194.98 0 435.5 0S871 194.98 871 435.5 676.02 871 435.5 871 0 676.02 0 435.5z"/><path fill-opacity=".5" d="M-20 895V-24h911v919zm455.5-20C676.02 875 871 680.02 871 439.5S676.02 4 435.5 4 0 198.98 0 439.5 194.98 875 435.5 875z" filter="url(#yjb8b)" mask="url(&quot;#yjb8c&quot;)"/></g><g><path fill="url(#yjb8d)" d="M47 435.5C47 220.937 220.937 47 435.5 47S824 220.937 824 435.5 650.063 824 435.5 824 47 650.063 47 435.5z"/><path fill-opacity=".5" d="M27 848V23h817v825zm408.5-20C650.063 828 824 654.063 824 439.5S650.063 51 435.5 51 47 224.937 47 439.5 220.937 828 435.5 828z" filter="url(#yjb8e)" mask="url(&quot;#yjb8f&quot;)"/></g><g><path fill="url(#yjb8g)" d="M778 440.5C778 629.658 624.658 783 435.5 783S93 629.658 93 440.5 246.342 98 435.5 98 778 251.342 778 440.5z"/><path fill-opacity=".5" d="M73 807V74h725v733zm362.5-705C246.342 102 93 255.342 93 444.5S246.342 787 435.5 787 778 633.658 778 444.5 624.658 102 435.5 102z" filter="url(#yjb8h)" mask="url(&quot;#yjb8i&quot;)"/></g><g><g><path fill="url(#yjb8j)" d="M778 440.5C778 629.658 624.658 783 435.5 783S93 629.658 93 440.5 246.342 98 435.5 98 778 251.342 778 440.5z"/><path fill-opacity=".5" d="M73 807V74h725v733zm362.5-705C246.342 102 93 255.342 93 444.5S246.342 787 435.5 787 778 633.658 778 444.5 624.658 102 435.5 102z" filter="url(#yjb8k)" mask="url(&quot;#yjb8l&quot;)"/></g><g clip-path="url(#yjb8m)"><g><path fill="#fff" d="M183.547 757.26l44.857 33.435c.857.857 2.572 2 3.429 2.858l-48 30.292-48.286-30.292c-.286 0-.286 0 0 0zm-10.857 16.003c-3.143 2-5.715 4.286-7.429 7.43-1.714 3.144-2.571 6.859-2.571 10.574s.857 7.43 2.571 10.573a18.59 18.59 0 0 0 7.429 7.43c3.143 1.715 6.857 2.573 10.857 2.573 1.714 0 3.428-.286 5.143-.572 1.714-.286 3.143-.571 4.571-1.429l-.857-2.286c-1.428.572-2.571 1.143-4.286 1.429-1.714.286-3.142.572-4.571.572-3.714 0-6.857-.858-9.714-2.287a14.63 14.63 0 0 1-6.572-6.573c-1.428-2.572-2.286-6-2.286-9.43 0-3.43.572-6.573 2.286-9.43a14.63 14.63 0 0 1 6.572-6.574c2.857-1.429 6-2.286 9.714-2.286 3.714 0 6.857.857 9.714 2.286a15.537 15.537 0 0 1 6.572 6.287c1.428 2.858 2.285 6.002 2.285 9.431 0 3.143-.285 5.43-1.142 7.144-.858 1.715-2 2.572-3.43 2.572-.856 0-1.428-.285-2-.857-.57-.572-.856-1.429-.856-2.572v-17.147h-2.857v4.573c-.857-1.429-2-2.572-3.715-3.43-1.428-.857-3.142-1.143-5.142-1.143-2 0-4 .572-5.715 1.43-1.714 1.142-3.143 2.571-4 4.286a13.287 13.287 0 0 0-1.428 6.001c0 2.287.571 4.287 1.428 6.002.857 1.714 2.286 3.143 4 4.286 1.715.858 3.715 1.43 5.715 1.43s3.714-.572 5.428-1.43c1.429-.857 2.857-2 3.714-3.715 0 1.715.572 2.858 1.429 3.715.857.858 2 1.43 3.429 1.43 2.57 0 4.285-1.144 5.714-3.43 1.143-2 2-5.144 2-8.86 0-4-1.143-7.715-2.857-10.573-1.715-3.143-4.286-5.43-7.429-7.144-3.143-1.715-6.857-2.572-10.857-2.572-4.286 0-7.714.857-10.857 2.286zm6 26.005c-1.429-.571-2.286-1.714-3.143-3.143-.857-1.429-1.143-3.144-1.143-4.858 0-1.715.286-3.144 1.143-4.573.857-1.143 1.714-2.286 3.143-3.143 1.428-.858 2.857-1.143 4.571-1.143 1.715 0 3.143.285 4.572 1.143 1.428.571 2.285 1.714 3.143 3.143.857 1.43 1.142 3.144 1.142 4.859 0 2-.285 3.715-1.142 4.858-.858 1.143-1.715 2.286-3.143 3.143-1.429.858-2.857 1.143-4.572 1.143-1.714 0-3.143-.285-4.571-1.428zm20.286 18.005c11.142-6.86 22-13.432 33.142-20.576v44.01zm33.428 27.148v8.574c0 .285-.286.571-.286.571l-.285.286H201.26l-60.286-.286h-5.714l-.286-.286c-.285 0-.285-.285-.285-.285v-8.288l36.285-26.291.286.285 2.857 2.572 9.429 5.716c4.286-2.572 8.571-5.43 12.857-8.002l35.714 25.434zm-63.714-27.149l-34 24.006-.286-45.439zm-33.715 39.152c0 .286.286.286.572.286h98.571c.572 0 1.143-.858 1.143-1.429l-.286-62.3c.286-.285.286-.571 0-.857l-51.428-38.294-51.429 38.294c-.285.286 0 .572.286.857-.286.286-.286.858-.286 1.143v60.871c0 .857.572 1.429 1.143 1.429z"/></g><g><path fill="#fff" d="M370.693 310.879c-2.857-1.714-5.714-3.715-8.571-6.287-23.429-19.718-33.429-42.009-31.715-84.304L364.98 212l1.429-.285 7.428-1.715h.572l7.428 1.715 1.429.285 34.571 8.288c0 48.582-8.286 64.586-31.714 84.304-2.857 2.572-5.714 4.573-8.572 6.287-1.714 1.429-2.571 2.001-3.428 2.001-1.143 0-1.714-.572-3.429-2.001zm11.715-69.158c2.857.286 5.142.572 6.857.858 5.714.571 8.857.857 9.428 2.857.572 2-1.714 3.716-6 7.716-1.428 1.43-3.143 2.858-5.143 4.573.572 2.572.858 4.858 1.429 6.858 1.143 5.716 2 8.574.286 9.717-1.429 1.143-4-.286-9.143-3.144-1.714-.857-3.714-2-6-3.429-2.286 1.429-4.286 2.572-6 3.43-5.143 2.857-7.714 4.572-9.143 3.143-1.429-1.143-.857-4.001.286-9.717.285-2 .857-4.286 1.428-6.858-2-1.715-3.714-3.43-5.143-4.573-4.285-4-6.571-5.715-6-7.716.572-2 3.429-2.286 9.429-2.857 2-.286 4-.286 6.857-.858 1.143-2.572 2-4.572 2.857-6.287 2.286-5.43 3.429-8.002 5.429-8.002 2 0 3.143 2.858 5.428 8.002.572 1.715 1.429 4.001 2.858 6.287zm6.57 3.715a317.692 317.692 0 0 0-7.713-.857l-.857-.286-.286-.571c-1.143-2.858-2.286-5.144-3.143-7.145-2-4.286-2.857-6.287-3.143-6.287-.286 0-1.143 2.286-2.857 6.287-.857 2-2 4.287-3.143 7.145l-.571.571h-.858c-2.857.286-5.428.572-7.714.858-4.571.571-6.857.857-7.143.857 0 .286 1.715 1.715 5.143 4.858 1.429 1.429 3.429 3.144 5.715 5.144l.57.572.287.857c-.572 2.858-1.143 5.43-1.429 7.716-.857 4.572-1.429 6.859-1.429 6.859.286 0 2.286-1.143 6.286-3.43 2-1.143 4-2.572 6.857-3.715l.572-.286.571.286c2.572 1.43 4.857 2.858 6.857 3.715 4 2.287 6 3.43 6.286 3.43.286 0-.286-2.572-1.429-6.859-.285-2-.857-4.572-1.428-7.716l-.286-.857.572-.572c2.285-2.286 4-4 5.714-5.144 3.428-3.143 5.143-4.572 5.143-4.858-.286 0-2.572-.286-7.143-.572zm18.572-11.145c0-.857.572-1.429 1.429-1.429.857 0 1.429.572 1.429 1.429-.286 14.289-1.43 25.434-5.143 34.865-3.715 9.716-10 17.718-20.572 26.577-1.143.857-2.571 2-3.428 2.858-1.143.857-2.286 1.714-3.429 2.286-1.428 1.143-2.286 1.715-3.428 1.715-1.143.285-2-.572-3.43-1.715-1.142-.572-2.285-1.429-3.428-2.286-1.143-.858-2.285-2-3.428-2.858-9.715-8.002-16.572-16.575-20.857-27.435-4.858-10.573-6.572-24.005-5.715-41.151 0-.572.572-1.144 1.143-1.43l34.857-8.573h.572c9.143 2 18.285 4.287 27.714 6.573l7.714 2c.857.286 1.143.858.857 1.715-.285.858-.857 1.143-1.714 1.143l-7.714-2c-9.143-2.286-18-4.572-27.429-6.573l-33.428 8.288c-.572 16.289.857 28.863 5.143 39.151 4 10.574 10.571 18.576 20 26.292 1.142.857 2.285 2 3.428 2.572 1.143.857 2.286 1.714 3.429 2.286l.285.286c.858.857 1.43 1.143 1.715 1.143h.285c.286 0 .572-.286 1.715-1.143l.285-.286c1.143-.572 2.286-1.429 3.43-2.286l3.428-2.572c10-8.288 16.285-16.29 19.714-25.435 3.143-9.144 4.286-19.718 4.571-34.007zm.572 38.294c4.571-11.717 6.857-27.149 6.857-49.725l-40.857-10.002h-.572L332.98 222.86c-.572 19.719 1.428 34.865 6.286 47.439 5.143 12.86 13.143 22.862 24.571 32.579 1.429 1.143 2.857 2.286 4.286 3.143 1.428.857 2.857 2 4 2.858.285 0 .285.286.285.286l1.143 1.143h.572c.286 0 .286-.286 1.143-1.143.285 0 .285-.286.285-.286 1.429-.858 2.858-1.715 4-2.858 1.429-.857 2.858-2 4.286-3.144 11.714-9.716 19.429-18.29 24.286-30.292z"/></g><g><g><path fill="#fff" d="M601.831 261.438a10.244 10.244 0 0 1-10.285 10.288 10.244 10.244 0 0 1-10.286-10.288 10.244 10.244 0 0 1 10.286-10.288 10.244 10.244 0 0 1 10.285 10.288zm-2.571 0c0-2.286-.857-4-2.286-5.43-1.428-1.429-3.143-2.286-5.428-2.286-2.286 0-4 .857-5.429 2.286-1.428 1.43-2.286 3.43-2.286 5.43 0 2 .858 4 2.286 5.43 1.429 1.429 3.143 2.286 5.429 2.286 2.285 0 4-.857 5.428-2.286 1.143-1.43 2-3.43 2.286-5.43z"/></g><g><path fill="#fff" d="M509.266 271.726a10.244 10.244 0 0 1-10.286-10.288 10.244 10.244 0 0 1 10.286-10.288 10.244 10.244 0 0 1 10.285 10.288 10.244 10.244 0 0 1-10.285 10.288zm-5.143-4.858c1.428 1.429 3.143 2.286 5.428 2.286 2.286 0 4-.857 5.429-2.286 1.429-1.43 2.286-3.43 2.286-5.43 0-2.286-.857-4-2.286-5.43-1.429-1.429-3.143-2.286-5.429-2.286-2.285 0-4 .857-5.428 2.286-1.429 1.43-2.286 3.43-2.286 5.43 0 2 .572 4 2.286 5.43z"/></g><g><path fill="#fff" d="M574.4 220.288A10.244 10.244 0 0 1 584.686 210a10.244 10.244 0 0 1 10.285 10.288 10.244 10.244 0 0 1-10.285 10.288 10.244 10.244 0 0 1-10.286-10.288zm2.571 0c0 2 .858 4 2.286 5.43 1.143 1.429 3.143 2.286 5.143 2.286 2.286 0 4-.857 5.429-2.286 1.428-1.43 2.285-3.43 2.285-5.43 0-2.286-.857-4-2.285-5.43-1.429-1.429-3.429-2.286-5.429-2.286-2 0-3.714.857-5.143 2.286-1.143 1.43-2.286 3.43-2.286 5.43z"/></g><g><path fill="#fff" d="M594.971 302.588a10.244 10.244 0 0 1-10.285 10.288 10.244 10.244 0 0 1-10.286-10.288 10.244 10.244 0 0 1 10.286-10.288 10.244 10.244 0 0 1 10.285 10.288zm-2.571 0c0-2.286-.857-4-2.286-5.43-1.428-1.429-3.428-2.286-5.428-2.286s-3.715.857-5.143 2.286c-1.429 1.43-2.286 3.43-2.286 5.43 0 2 .857 4 2.286 5.43 1.143 1.429 3.143 2.286 5.143 2.286 2.285 0 4-.857 5.428-2.286 1.143-1.43 2-3.43 2.286-5.43z"/></g><g><path fill="#fff" d="M505.83 220.288A10.244 10.244 0 0 1 516.116 210a10.244 10.244 0 0 1 10.285 10.288 10.244 10.244 0 0 1-10.285 10.288 10.244 10.244 0 0 1-10.286-10.288zm2.571 0c0 2 .858 4 2.286 5.43 1.429 1.429 3.143 2.286 5.429 2.286 2.286 0 4-.857 5.428-2.286 1.429-1.43 2.286-3.43 2.286-5.43 0-2.286-.857-4-2.286-5.43-1.428-1.429-3.142-2.286-5.428-2.286s-4 .857-5.429 2.286c-1.428 1.43-2 3.43-2.286 5.43z"/></g><g><path fill="#fff" d="M526.402 302.588a10.244 10.244 0 0 1-10.286 10.288 10.244 10.244 0 0 1-10.286-10.288 10.244 10.244 0 0 1 10.286-10.288 10.244 10.244 0 0 1 10.286 10.288zm-2.572 0c0-2.286-.857-4-2.286-5.43-1.428-1.429-3.142-2.286-5.428-2.286s-4 .857-5.429 2.286c-1.428 1.43-2.286 3.43-2.286 5.43 0 2 .858 4 2.286 5.43 1.429 1.429 3.143 2.286 5.429 2.286 2.286 0 4-.857 5.428-2.286 1.429-1.43 2-3.43 2.286-5.43z"/></g><g><path fill="#fff" d="M537.83 242.004c0-6.858 5.714-12.574 12.571-12.574 7.143 0 12.858 5.43 12.858 12.574 0 7.145-5.715 12.86-12.858 12.86-6.857 0-12.571-6.001-12.571-12.86zm2.571.286c0 2.858 1.143 5.43 2.858 7.144 2 1.715 4.285 2.858 7.142 2.858 2.858 0 5.429-1.143 7.143-2.858 1.715-2 2.857-4.286 2.857-7.144 0-2.858-1.142-5.144-2.857-7.144-2-1.715-4.285-2.858-7.143-2.858-2.857 0-5.142 1.143-7.142 2.858-1.715 1.714-2.858 4.286-2.858 7.144z"/></g><g><path fill="#fff" d="M570.694 275.441v5.716c-13.428 3.715-26.571 3.715-39.714 0v-2.286-1.143-2.287c0-8.859 4.286-18.575 13.429-18.861 2 .857 4 1.429 6.285 1.429 2.286 0 4.286-.572 6.286-1.429 10.286.286 13.429 10.002 13.429 18.861zm-3.142 0c0-4.572-.858-9.145-3.143-12.288-1.429-2-3.715-3.43-7.143-3.715-.857.286-2 .571-2.857.857-1.429.286-2.858.286-4 .286-1.143 0-2.572 0-3.715-.286-1.143-.286-2.285-.571-3.142-.857-2.858.286-5.143 1.714-6.858 4-2.285 3.144-3.428 7.717-3.428 12.003v3.43c5.714 1.429 11.428 2 17.143 2 5.428 0 11.428-.571 17.143-2z"/></g><g><path fill="#fff" d="M575.545 292.874c.286 0 .571 0 .857-.286.571-.571.571-1.429.286-2l-5.715-7.145c-.571-.571-1.428-.571-2-.285-.571.571-.571 1.429-.285 2l5.714 7.145c.286.571.571.571 1.143.571z"/></g><g><path fill="#fff" d="M524.403 230.288c-.571.572-.571 1.43-.285 2l7.714 9.146c.286.285.571.571 1.143.571.285 0 .571 0 .857-.286.571-.571.571-1.428.286-2l-7.715-9.145c-.571-.857-1.428-.857-2-.286z"/></g><g><path fill="#fff" d="M530.116 283.727l-5.715 7.145c-.571.571-.285 1.429.286 2 .286.286.572.286.857.286.286 0 .857-.286 1.143-.572l5.714-7.144c.572-.572.286-1.429-.285-2-.857-.572-1.715-.286-2 .285z"/></g><g><path fill="#fff" d="M567.834 241.718c.286 0 .857-.285 1.143-.571l7.714-9.145c.572-.572.286-1.429-.285-2-.572-.572-1.429-.286-2 .285l-7.715 9.145c-.571.572-.285 1.43.286 2 .286.286.572.286.857.286z"/></g><g><path fill="#fff" d="M569.829 260.01c-.858 0-1.429.572-1.429 1.429 0 .857.571 1.429 1.429 1.429h8c.857 0 1.428-.572 1.428-1.43 0-.856-.571-1.428-1.428-1.428z"/></g><g><path fill="#fff" d="M522.979 260.01c-.858 0-1.429.572-1.429 1.429 0 .857.571 1.429 1.429 1.429h8.285c.858 0 1.429-.572 1.429-1.43 0-.856-.571-1.428-1.429-1.428z"/></g></g><g><path fill="#fff" d="M688.978 269.156c2 0 3.715 1.143 4.857 2.572l17.715-5.43c.857-.286 1.428.286 1.714.857.286.572-.286 1.43-.857 1.715l-17.429 5.43v.571c0 3.144-2.571 5.716-5.714 5.716-3.143 0-5.714-2.572-5.714-5.716-.572-3.143 2-5.715 5.428-5.715zm66 20.004c3.715 0 6.857 3.144 6.857 6.859s-3.142 6.858-6.857 6.858c-3.714 0-6.857-3.143-6.857-6.858 0-2 .857-4.001 2.286-5.144l-5.143-8.573c-.286-.572-.286-1.43.571-2 .572-.287 1.429-.287 2 .57l5.143 8.574c.572-.286 1.429-.286 2-.286zm3.143 4.001c-.857-.857-1.714-1.143-2.857-1.143-1.143 0-2.286.572-2.857 1.143-.857.857-1.143 1.715-1.143 2.858s.571 2.286 1.143 2.858c.857.857 1.714 1.143 2.857 1.143 1.143 0 2.286-.572 2.857-1.143.857-.858 1.143-1.715 1.143-2.858s-.571-2.286-1.143-2.858zm-37.143-46.867c3.429-3.144 8-4.859 13.143-4.859 2.857 0 5.714.572 8.286 1.715l6.286-11.43c.285-.573 1.142-.858 1.714-.573.857.286.857 1.144.571 2l-6.285 11.432c5.714 3.43 9.428 9.716 9.428 16.86 0 11.146-8.857 20.005-20 20.005-2.857 0-5.714-.571-8.286-1.714l-6.857 12.288c-.285.572-1.143.857-2 .572-.571-.286-.857-1.144-.571-2l6.857-12.29c-5.429-3.429-9.143-9.716-9.143-16.86 0-5.144 2-9.43 4.857-13.146l-12-12.002c-.571-.572-.571-1.43 0-2.001.572-.571 1.429-.571 2 0zm44.286 14.86c.857 0 1.429.572 1.429 1.429 0 .857-.858 1.429-1.429 1.429l-7.714-.572c-.857 0-1.429-.857-1.429-1.429 0-.857.857-1.428 1.429-1.428zm-64-38.866c3.714 0 6.571 2.858 6.571 6.573 0 3.715-2.857 6.573-6.571 6.573-3.714 0-6.571-2.858-6.571-6.573 0-3.715 3.142-6.573 6.571-6.573zm2.857 3.715c-.571-.571-1.714-1.143-2.571-1.143-1.143 0-2 .572-2.857 1.143-.858.858-1.143 1.715-1.143 2.858s.285 2 1.143 2.858c.857.572 1.714 1.143 2.857 1.143 1.143 0 2-.286 2.571-1.143.857-.857 1.143-1.715 1.143-2.858s-.571-2.286-1.143-2.857zm42.286-5.715A10.244 10.244 0 0 1 756.693 210a10.244 10.244 0 0 1 10.285 10.288 10.244 10.244 0 0 1-10.285 10.288 10.244 10.244 0 0 1-10.286-10.288zm15.714-5.43c-1.428-1.429-3.143-2.286-5.428-2.286-2 0-4 .857-5.429 2.286-1.429 1.43-2.286 3.144-2.286 5.43 0 2 .857 4 2.286 5.43 1.429 1.429 3.143 2.286 5.429 2.286 2 0 4-.857 5.428-2.286 1.429-1.43 2.286-3.43 2.286-5.43-.286-2-1.143-4-2.286-5.43zm-15.714 34.293c-3.143-3.143-7.429-5.144-12.286-5.144-4.857 0-9.143 2-12.286 5.144-3.142 3.144-5.142 7.43-5.142 12.289 0 4.572 2 9.145 5.142 12.288 3.143 3.144 7.429 5.144 12.286 5.144 4.857 0 9.143-2 12.286-5.144 3.143-3.143 5.143-7.43 5.143-12.288 0-4.858-2-9.145-5.143-12.289zm30.857 5.43c4.571 0 8.571 3.715 8.571 8.574 0 4.572-4 8.573-8.571 8.573-4.857 0-8.571-4.001-8.571-8.574 0-4.858 3.714-8.573 8.571-8.573zm4 4.287c-1.143-1.143-2.571-1.715-4-1.715-1.714 0-3.143.858-4 1.715-1.143 1.143-1.714 2.572-1.714 4 0 1.43.857 3.144 1.714 4.002 1.143 1.143 2.571 1.714 4 1.714 1.714 0 3.143-.571 4-1.714 1.143-1.143 1.714-2.572 1.714-4.001 0-1.43-.571-2.858-1.714-4.001zm-79.714 43.724a10.244 10.244 0 0 1 10.285-10.288 10.244 10.244 0 0 1 10.286 10.288 10.244 10.244 0 0 1-10.286 10.288 10.244 10.244 0 0 1-10.285-10.288zm15.714-5.43c-1.429-1.429-3.143-2.286-5.429-2.286-2 0-4 .857-5.428 2.286-1.429 1.429-2.286 3.143-2.286 5.43 0 2 .857 4 2.286 5.43 1.428 1.428 3.428 2.286 5.428 2.286s4-.858 5.429-2.287c1.429-1.428 2.286-3.429 2.286-5.43-.286-2-.857-4-2.286-5.429zm-26.286-24.291c-.571-.572-1.428-.857-2-.857-.857 0-1.714.285-2.285.857-.572.572-.858 1.429-.858 2 0 .572.286 1.715.858 2.287.571.571 1.428.857 2.285.857.857 0 1.429-.286 2-.857.572-.572.857-1.43.857-2.287s-.285-1.428-.857-2z"/></g><g><path fill="#fff" d="M779.544 396.04c1.143 0 2.286.572 2.857 1.143.858.857 1.143 2 1.143 2.858v95.735c0 1.143-.571 2.286-1.143 2.858-.857.857-2 1.429-2.857 1.429h-93.428c-1.143 0-2.286-.572-2.857-1.429-.858-.857-1.429-1.715-1.429-2.858v-95.45c0-1.142.571-2.286 1.429-2.857.571-1.143 1.714-1.429 2.857-1.429zm-30.857 46.867c3.429 2 5.143 3.43 5.143 5.144 0 1.715-1.714 3.144-5.143 4.859l-25.428 14.003c-1.143.571-1.715.857-2.286 1.429-1.429.857-2.286 1.429-3.143.857-.857-.572-.857-1.429-.857-2.858v-34.865c0-1.428 0-2.572.286-3.143 1.142-1.715 2.571-1.715 5.142 0zM721.26 430.62c-.858-.572-.858-1.429-.858-1.143v36.294c.572-.286 1.429-.858 2-1.143l25.715-14.29c2.571-1.142 3.714-2 3.714-2.571 0-.572-1.714-1.144-4.286-2.572zm-35.143-32.007c-.286 0-.857.286-1.143.286-.286.286-.572.571-.572 1.143v95.735c0 .286.286.858.572 1.143.286.286.571.572 1.143.572h93.428c.286 0 .857-.286 1.143-.572.286-.285.286-.571.286-1.143v-95.45c0-.285-.286-.857-.286-1.142-.571-.286-.857-.572-1.143-.572z"/></g><g><path fill="#fff" d="M399.551 593.226c-1.429 11.717-3.429 20.576-8.286 28.578-4.571 8.002-12 15.146-23.714 23.148l1.143 10.002c-7.715 8.86-15.715 17.433-23.429 26.292l-8.286-8.288 10-16.86v-.287l-6.857 1.715-19.143-19.147.572-.857c.285-.572.857-2.858 1.143-5.43l-16.858 10.002-8.285-8.287c8.857-7.716 17.428-15.718 26.285-23.434l9.715 1.143c8.285-12.003 15.428-19.433 23.428-24.291 8.286-4.858 17.143-6.859 29.143-8.288 2.572-.285 4.857-.571 6.572-.857 4.571-.571 6.857-.857 8 .286 1.142 1.429.857 3.43.285 7.716-.571 1.714-1.143 4.286-1.428 7.144zm-10.572 27.435c4.572-7.716 6.572-16.29 7.715-27.72.285-2.858.857-5.43 1.142-7.43.572-3.43.858-5.145.572-5.43-.286-.286-2 0-5.714.571-1.715.286-4 .572-6.858.857-11.714 1.43-20.285 3.43-28 7.716-7.714 4.573-14.857 12.003-23.142 24.006l-.572.571-10-.857-23.143 20.862 5.143 4.858 16-9.717 3.429 1.144-.286 2.286c-.286 2-.857 4-1.143 5.43l16.857 16.86 7.429-2 1.428 3.715-9.714 16.003 4.857 4.859 20.857-23.148-1.142-10.574.857-.572c11.714-7.716 18.857-14.574 23.428-22.29zm-33.143-4.858c2 0 3.715.857 5.143 2 1.429 1.429 2 3.144 2 5.144s-.857 3.715-2 5.144c-1.428 1.429-3.143 2-5.143 2s-3.714-.857-5.142-2c-1.429-1.429-2-3.144-2-5.144s.857-3.715 2-5.144c1.142-1.143 2.857-2 5.142-2zm3.143 4.286c-.857-.857-2-1.429-3.143-1.429-1.142 0-2.285.572-3.142 1.43-.858.857-1.429 2-1.429 3.143 0 1.143.571 2.286 1.429 3.143.857.858 2 1.43 3.142 1.43 1.143 0 2.286-.572 3.143-1.43.857-.857 1.429-2 1.429-3.143-.286-1.429-.857-2.572-1.429-3.144zm-33.143 32.579c-1.428-1.715-3.714-2.286-6.285-1.715-2.572.286-5.429 2-7.715 4.287-3.142 3.143-7.714 10.002-10.571 16.003-2 4.001-2.857 7.431-2 8.574 1.429 1.429 6-.286 10.857-3.144 5.429-2.858 10.857-6.858 13.429-9.43 2.571-2.572 4-5.43 4.285-8.002.286-2.858-.285-5.144-2-6.573zm-6.571-4.572c3.429-.572 6.571.285 8.571 2.571 2.286 2.287 3.143 5.43 2.572 8.574-.572 3.143-2.286 6.573-5.143 9.43-2.857 2.858-8.571 6.859-14 10.003-6 3.143-11.714 5.144-14 2.572-2-2.001-1.143-6.573 1.429-11.717 2.857-6.287 8-13.432 11.142-16.575 2.858-2.572 6.286-4.287 9.429-4.858zm61.143-50.011c-2-2-4.286-2.858-6.857-2.858-2.572 0-5.143.857-6.857 2.858-2 2-2.858 4.572-2.858 6.858 0 2.286.858 5.144 2.858 6.859 2 2 4.571 2.858 6.857 2.858 2.571 0 5.143-.858 6.857-2.858 2-2 2.857-4.573 2.857-6.859 0-2.286-1.143-5.144-2.857-6.858zm-7.143-5.716c3.143 0 6.571 1.143 8.857 3.715 2.572 2.572 3.714 5.716 3.714 8.86 0 3.143-1.142 6.286-3.714 8.858-2.571 2.572-5.714 3.715-8.857 3.715-3.143 0-6.286-1.143-8.857-3.715-2.572-2.572-3.714-5.715-3.714-8.859 0-3.143 1.142-6.573 3.714-8.859 2.571-2.572 5.714-3.715 8.857-3.715z"/></g><g><path fill="#fff" d="M717.547 579.226c13.714 0 26 5.144 35.143 14.003l2.571-2.572v-5.716l.286.286 5.429-6.287 3.143 3.144 1.714-1.715 2 2-1.714 1.715 2.571 2.572-6 5.716.286.285h-6l-2.572 2.572c8.572 9.145 14 21.434 14 35.15 0 14.004-5.714 26.864-14.857 36.009-9.143 9.145-22 14.86-36 14.86s-26.857-5.715-36-14.86-14.857-22.005-14.857-36.008c0-14.003 5.714-26.863 14.857-36.008 9.143-9.43 22-15.146 36-15.146zm-.857 50.01l6.857-6.858c-1.714-1.429-3.714-2-6-2-2.857 0-5.143 1.143-7.143 2.857-2 1.715-2.857 4.287-2.857 7.145 0 2.858 1.143 5.144 2.857 7.144 2 2 4.286 2.858 7.143 2.858s5.143-1.143 7.143-2.858c1.714-2 2.857-4.286 2.857-7.144 0-2.286-.857-4.287-2-6.001l-6.857 6.858zm16-16.003c-4-3.43-9.429-5.715-15.143-5.715-6.286 0-12 2.572-16 6.858-4 4.001-6.571 9.717-6.571 16.004 0 6.287 2.571 12.003 6.571 16.003 4 4.001 9.714 6.573 16 6.573s12-2.572 16-6.573c4-4 6.857-9.716 6.857-16.003 0-5.716-2.285-11.145-5.714-15.146l-7.143 7.144c1.714 2.286 2.857 4.858 2.857 8.002 0 3.43-1.428 6.859-3.714 8.859-2.286 2.286-5.428 3.715-8.857 3.715-3.429 0-6.857-1.429-8.857-3.715-2.286-2.286-3.715-5.43-3.715-8.86 0-3.428 1.429-6.858 3.715-8.858 2.285-2.286 5.428-3.715 8.857-3.715 2.857-.286 5.429.857 7.714 2.572zm9.143-9.145c-6.286-6.001-14.857-9.43-24-9.43-9.714 0-18.572 4-25.143 10.288-6.286 6.572-10.286 15.432-10.286 25.148s4 18.576 10.286 25.148c6.286 6.288 15.429 10.288 25.143 10.288s18.571-4 25.143-10.288c6.285-6.287 10.285-15.431 10.285-25.148 0-9.43-3.428-17.718-9.428-24.005l-7.143 7.144c4 4.573 6.571 10.574 6.571 17.147 0 7.144-2.857 13.431-7.428 18.004-4.572 4.572-10.857 7.43-18 7.43-7.143 0-13.429-2.858-18-7.43-4.572-4.573-7.429-11.145-7.429-18.004 0-6.859 2.857-13.432 7.429-18.004 4.571-4.572 11.143-7.43 18-7.43 6.286-.286 12.286 2.286 16.857 6.287zm8.857-8.859c-8.571-8.287-20.286-13.145-33.143-13.145-13.428 0-25.428 5.43-34 14.288-8.857 8.86-14.286 20.862-14.286 34.008 0 13.431 5.429 25.434 14.286 34.007 8.572 8.86 20.857 14.29 34 14.29s25.429-5.43 34-14.29c8.857-8.573 14.286-20.861 14.286-34.007 0-12.86-5.143-24.577-13.143-33.15l-7.143 7.144c6.286 6.859 10.286 16.004 10.286 26.006 0 10.574-4.286 20.29-11.143 27.149-6.857 6.858-16.571 11.145-27.143 11.145-10.571 0-20.286-4.287-27.143-11.145-6.857-6.859-11.142-16.575-11.142-27.15 0-10.573 4.285-20.003 11.142-27.148 6.857-6.859 16.572-11.145 27.143-11.145 10 0 19.143 3.715 26 10.288z"/></g><g><path fill="#fff" d="M232.686 231.72c1.428 0 2.571.572 3.428 1.429.857.857 1.429 2 1.429 3.43v48.01c0 1.429-.572 2.572-1.429 3.43-.857.856-2 1.428-3.428 1.428h-54.857l-24 21.433c-.572.572-1.429.572-2 0 0-.286-.286-.857-.286-1.143v-20.576h-12.286c-1.428 0-2.571-.571-3.428-1.429-.858-.857-1.429-2-1.429-3.429v-48.01c0-1.43.571-2.573 1.429-3.43.857-.857 2-1.143 3.428-1.143zm-53.143 38.866h36.286v2.857h-36.286zm0-6.573h36.286v2.858h-36.286zm0-7.145h36.286v2.858h-36.286zm-32 6.573l7.428-6.573 6.286 6.288 8.286-8.86v-4.858c0-.286 0-.286-.286-.286 0-.285-.286-.285-.571-.285h-20.572c-.285 0-.285 0-.571.285 0 0-.286.286-.286.572v13.717zm22-5.144l-8.286 8.86-6.286-6.573-7.428 6.572v2.858c0 .286 0 .286.286.572.285 0 .285.285.571.285h20.571c.286 0 .286 0 .572-.285.286-.286.286-.286.286-.572v-11.717zm55.428-12.288c.858 0 1.429.571 1.429 1.429v2.858c0 .857-.571 1.428-1.429 1.428h-44c-.857 0-1.428-.571-1.428-1.428v-2.858c0-.858.571-1.43 1.428-1.43zm-56.285 0c2 0 3.428 1.715 3.428 3.43v20.575c0 2-1.428 3.43-3.428 3.43h-20.572c-2 0-3.428-1.43-3.428-3.43v-20.576c.285-1.714 1.714-3.43 3.428-3.43zm-29.429-11.717c-.571 0-1.143.286-1.428.572-.572.571-.572.857-.572 1.428v48.011c0 .572.286 1.143.572 1.429.285.286.857.571 1.428.571h13.714c.858 0 1.429.572 1.429 1.43v18.86l22-19.718c.286-.286.571-.572.857-.572h55.429c.571 0 1.143-.285 1.428-.571.286-.286.572-.857.572-1.429v-48.01c0-.572-.286-1.144-.572-1.43-.571-.285-1.143-.571-1.714-.571z"/></g><g><g><path fill="#fff" d="M385.544 814.415c-2.857 0-5.714-.572-8.285-1.715-11.715.286-17.429 12.86-17.429 24.291v8.288l2.857 2.572v-10.86c0-5.716 1.429-11.717 4.572-16.003 2.285-3.144 5.428-5.43 9.428-5.716 1.429.572 2.572.857 4 1.143 1.429.286 3.143.572 4.857.572 1.715 0 3.143-.286 4.857-.572 1.429-.286 2.572-.857 4-1.143.572 0 1.143 0 2 .286l2.286-2.286c-1.428-.286-2.857-.572-4.571-.572-2.857 1.143-5.429 1.715-8.572 1.715z"/></g><g><path fill="#fff" d="M413.26 804.132c-2.857 6.858-7.143 10.288-11.143 14.289-2.286 2.286-37.429 37.722-38.286 38.294-.857-.572-36.285-36.294-38.285-38.294-4-3.716-8.286-7.43-11.143-14.29-2.857-6.858-2.857-14.86 0-21.718 2.571-6.287 6.857-10.574 11.714-13.718 10.286-6.287 24.572-5.43 33.714 2.858 1.429 1.143 3.715 4.001 6.286 1.43 4-3.716 8.857-6.574 14.572-7.717 7.714-1.715 15.142 0 20.857 3.43 12 7.43 17.143 22.29 11.714 35.436zm-2-18.861c-1.714-6.002-5.714-10.86-11.143-14.29-2.571-1.714-5.428-2.857-8.857-3.429-3.143-.285-6.286-.285-9.714.286-2.572.572-4.857 1.429-7.143 2.572-2.286 1.143-4.286 2.858-6 4.573-4 4.286-7.143 1.143-9.429-.858l-.285-.286c-4-3.715-9.143-5.715-14.572-6.287-5.428-.571-11.143.572-15.714 3.43-2.286 1.429-4.286 3.143-6.286 5.144-2 2.286-3.428 4.572-4.571 7.43-1.429 3.143-2 6.287-2 9.716-.286 3.43.571 6.573 1.714 9.717 2.286 5.43 5.714 8.573 8.857 11.717l5.143 5.143 32.857 32.865 34-34.008 2.286-2.286 1.714-1.714c3.143-3.144 6.571-6.288 8.857-11.717 2.286-5.716 2.286-12.003.286-17.719z"/></g><g><path fill="#fff" d="M401.831 794.13c0 8.858-7.428 16.289-16.285 16.289s-16.286-7.145-16.286-16.29c0-8.859 7.429-16.289 16.286-16.289 9.143 0 16.285 7.144 16.285 16.29zm-2.571-.287c0-3.715-1.429-6.858-4-9.43-2.286-2.572-5.714-4.001-9.429-4.001-4 0-7.142 1.715-9.714 4-2.571 2.287-4 5.716-4 9.431 0 4.001 1.429 7.145 4 9.717 2.572 2.572 6 4 9.714 4 3.715 0 6.858-1.428 9.429-4a13.79 13.79 0 0 0 4-9.716z"/></g></g><g><g><path fill="#fff" d="M151.83 423.189c0-12.003 9.714-21.719 21.714-21.719 12.286 0 22 10.002 22 22.005 0 12.002-10 21.719-22 21.719s-21.714-10.002-21.714-22.005zm2.571 0c0 5.144 2.286 10.002 5.715 13.432 3.428 3.429 8.285 5.715 13.428 5.715 5.143 0 10-2.286 13.429-5.715 3.714-3.43 5.714-8.288 5.714-13.432s-2.286-10.002-5.714-13.431c-3.429-3.716-8.286-5.716-13.429-5.716-5.143 0-10 2.286-13.428 5.716-3.429 3.429-5.715 8.287-5.715 13.431z"/></g><g><path fill="#fff" d="M193.836 446.904c.285-1.143.571-2 .571-3.429l.286-.857-.572-.572c-.857-.857-1.714-1.714-2.571-2.286l-.571.572-1.429 1.428c.571.572 1.429 1.144 2 2-.286.858-.286 1.43-.571 2.287 1.142.286 2 .572 2.857.857z"/></g><g><path fill="#fff" d="M207.831 480.343v9.716c-23.142 6.287-46 6.287-68.571 0v-3.715-2-3.715c0-15.147 7.429-32.293 23.143-32.579 3.428 1.429 7.143 2.286 11.143 2.286 4 0 7.714-.857 11.143-2.286 18 .286 23.142 17.432 23.142 32.293zm-2.285 7.716v-7.43c0-8.002-1.429-16.29-5.715-22.291-3.142-4.287-7.714-7.144-14.285-7.43-2 .857-3.715 1.429-5.429 1.714-2 .286-4 .572-6.286.572-2.285 0-4.285-.286-6.285-.572-2-.285-3.715-.857-5.429-1.714-6 .286-10.571 3.43-13.714 8.002-4.286 5.715-6.286 14.003-6.286 21.719v7.43c10.286 2.572 20.572 4 31.143 4 10.571 0 21.143-1.142 31.714-4z"/></g><g><path fill="#fff" d="M241.259 427.764c-.858-2.287-4.572-2.572-12-3.43-2.572-.285-5.715-.571-9.429-1.143-1.429-3.429-2.857-6.287-4-8.573-2.857-6.859-4.571-10.288-6.857-10.288-2.286 0-4 3.43-6.857 10.288-1.143 2.572-2.286 5.144-4 8.573 0 .858 0 2-.286 2.858l1.429-.286h.857l.285-.857c1.715-3.43 3.143-6.859 4.286-9.43 2.572-5.716 4-8.86 4.572-8.86.571 0 1.714 2.858 4.285 8.86a748.762 748.762 0 0 0 4.286 9.43l.286.857h.857c4 .572 7.428.858 10.286 1.143 6.285.572 9.428.858 9.714 1.43.286.57-2.286 2.571-6.857 6.858-2 2-4.572 4-7.715 6.859l-.571.571.286.857c.857 4.001 1.428 7.43 2 10.003 1.428 6.287 2 9.43 1.714 9.716-.286.286-3.143-1.429-8.857-4.572-2.572-1.43-5.429-3.144-8.857-5.144h-1.143l-.572.285c-1.428.858-2.571 1.43-4 2 .572.858.858 1.716 1.429 2.573.857-.572 2-1.143 3.143-1.715 3.143 1.715 6 3.43 8.286 4.573 6.571 3.715 10 5.715 11.714 4.286 2-1.429 1.143-5.144-.572-12.574-.571-2.572-1.142-5.715-2-9.145 2.572-2.572 5.143-4.572 6.858-6.287 6-5.144 8.857-7.716 8-9.716z"/></g></g><g><path fill="#fff" d="M512.12 432.62c0 4.859 2 9.145 5.143 12.289s7.428 5.144 12.286 5.144c4.857 0 9.142-2 12.285-5.144 3.143-3.144 5.143-7.43 5.143-12.288 0-4.859-2-9.145-5.143-12.289-3.143-3.143-7.428-5.144-12.285-5.144-4.858 0-9.143 2-12.286 5.144-3.143 3.144-5.143 7.43-5.143 12.289zm44-34.578c1.143.571 2 1.714 2 3.143 0 1.429-.857 2.572-2 3.144v3.715c7.429-1.43 14.571-.572 21.429.285 7.428.858 14.285 2.001 21.142 0l1.715-.571v31.15l-1.143.285c-7.143 1.715-14.286.572-21.429-.571-7.428-1.429-14.857-2.572-22 .286v19.432l-2.857-2.286V404.33c-1.143-.572-2-1.715-2-3.144s.857-2.572 2-3.143v-.572h2.857v.572zm21.143 13.145c-6.857-.857-14-2-21.143-.286v25.149c7.429-2.572 14.857-1.143 22.571 0 6.286 1.143 12.858 2.286 19.143.857V411.76c-6.857 1.429-13.714.286-20.571-.572zm-47.714 1.143c11.428 0 20.285 9.145 20.285 20.29 0 11.146-8.857 20.29-20.285 20.29-11.429 0-20.286-9.144-20.286-20.29 0-11.145 9.143-20.29 20.286-20.29zm.285 45.153c3.715 0 7.143-.571 10.286-2 16.571.286 21.429 16.003 21.429 30.006v8.86c-21.429 5.715-42.572 5.715-63.429 0v-8.86c0-14.003 6.857-29.72 21.429-30.006 2.857 1.429 6.285 2.286 10.285 2zm-10.857.858c-5.428.285-9.428 3.143-12.571 7.144-4 5.43-5.715 12.86-5.715 20.004v6.859c9.429 2.572 19.143 3.715 28.572 3.715 9.714 0 19.428-1.143 29.143-3.715v-6.859c0-7.43-1.429-15.146-5.143-20.576-2.857-4-6.857-6.572-12.857-6.858-1.429.571-3.143 1.143-4.857 1.429-2 .285-3.715.571-5.715.571s-4-.286-5.714-.571c-2 0-3.714-.572-5.143-1.143z"/></g><g><path fill="#fff" d="M375.547 396.33l20.572 20.576v47.725l-2.572-2.286v-44.296l-1.143-1.143h-12c-2.571 0-4.857-2.286-4.857-4.858V400.33l-1.143-1.143h-46.857c-.571 0-1.143.286-1.428.571-.286.286-.572.858-.572 1.43v93.162c0 .572.286 1.144.572 1.43.285.285.857.571 1.428.571h63.714c.572 0 1.143-.286 1.429-.572.286-.285.571-.857.571-1.428v-3.716l2.572 2.287v1.428c0 2.573-2.286 4.859-4.857 4.859h-63.429c-2.571 0-4.857-2.286-4.857-4.859v-93.163c0-2.572 2.286-4.858 4.857-4.858zm-3.428 36.294c-.286-.572-.286-1.43.285-2 .572-.287 1.429-.287 2 .285 2 3.144 2.857 6.573 2.857 10.002 0 3.43-.857 6.859-2.857 10.002-2.857 4.573-7.143 7.43-12 8.288-4.571 1.143-10 .286-14.285-2.572-4.572-2.858-7.429-7.144-8.286-12.003-1.143-4.572-.286-10.002 2.571-14.288 2.857-4.573 7.143-7.43 12-8.288 4.572-1.143 10-.286 14.286 2.572.571.286.857 1.429.286 2-.286.572-1.143.858-2 .286-3.715-2.572-8.286-2.858-12.286-2-4 .857-7.714 3.429-10 7.144-2.571 3.715-3.143 8.288-2 12.289.857 4 3.429 7.716 7.143 10.002h.286c3.714 2.286 8.285 2.858 12.285 2 4-.857 7.715-3.43 10-7.144v-.286c1.715-2.572 2.572-5.716 2.572-8.573-.572-2-1.143-4.858-2.857-7.716zm-13.715-17.433c7.143 0 13.715 2.858 18.572 7.716 4.571 4.859 7.714 11.146 7.714 18.576s-2.857 13.717-7.714 18.575c-4.572 4.573-11.143 7.716-18.572 7.716-7.428 0-13.714-2.858-18.571-7.716-4.572-4.572-7.714-11.145-7.714-18.575s2.857-13.718 7.714-18.576c4.857-4.858 11.143-7.716 18.571-7.716zm16.286 9.43c-4.286-4.286-10-6.858-16.571-6.858-6.572 0-12.286 2.572-16.572 6.859s-6.857 10.002-6.857 16.575c0 6.573 2.571 12.288 6.857 16.575 4.286 4.287 10 6.859 16.572 6.859 6.571 0 12.285-2.572 16.571-6.859 4.286-4.287 6.857-10.002 6.857-16.575a23.583 23.583 0 0 0-6.857-16.575zm.571 41.439c-.571-.572-.571-1.43 0-2 .572-.572 1.429-.572 2 0l30.572 32.864 5.428-1.43.572-5.143-29.429-27.435c-.571-.572-.571-1.429 0-2 .572-.572 1.429-.572 2 0l30 28.006c.286.285.572.857.286 1.143l-.857 6.859c0 .571-.572 1.143-1.143 1.143l-6.857 2c-.572.286-1.143 0-1.429-.286zm-40.857 18.86h27.429v2.859h-27.429zm0-7.715h42.857v2.572h-42.857zm15.715-46.01h16.571v2.858h-16.571zm-9.715 38.58v2.858h-6.285v-2.858zm9.715-23.434h17.142v2.572H350.12zm-2-7.43h20.571v2.857h-20.571z"/></g><g><g><path fill="#fff" d="M184.686 665.245c1.143 1.143 1.714 2.572 1.714 4.286 0 1.715-.571 3.144-1.714 4.287-1.143.857-2.572 1.715-4.286 1.715-1.714 0-3.143-.572-4.286-1.715-1.143-1.143-1.714-2.572-1.714-4.287 0-1.714.571-3.143 1.714-4.286 1.143-1.143 2.572-1.715 4.286-1.715 1.714 0 3.143.572 4.286 1.715zm-.857 4.286c0-1.143-.286-2-.858-2.572-.857-.857-1.428-1.143-2.571-1.143-1.143 0-2 .572-2.571 1.143-.572.572-.858 1.715-.858 2.572 0 1.143.286 2 .858 2.572.857.572 1.428.858 2.571.858 1.143 0 2-.286 2.571-.858.572-.571.858-1.429.858-2.572z"/></g><g><path fill="#fff" d="M207.257 582.65c1.714 0 3.429 1.429 3.429 3.43v71.158c0 2-1.429 3.43-3.429 3.43H153.83c-2 0-3.429-1.43-3.429-3.43v-71.159c0-1.714 1.429-3.429 3.429-3.429zm.857 74.588v-71.159c0-.285 0-.571-.285-.571-.286-.286-.286-.286-.572-.286H153.83c-.286 0-.572 0-.572.286-.286.286-.286.286-.286.571v71.159c0 .286 0 .571.286.571.286.286.286.286.572.286h53.142c.286 0 .572 0 .572-.286.286-.285.286-.285.286-.571z"/></g><g><path fill="#fff" d="M166.116 622.95c1.714 0 3.428 1.715 3.428 3.43v6.858c0 2-1.428 3.43-3.428 3.43h-6.857c-2 0-3.429-1.43-3.429-3.43v-6.859c0-2 1.429-3.429 3.429-3.429zm.857 10.288v-6.859c0-.285 0-.285-.286-.571s-.286-.286-.571-.286h-6.857l-.286.286c-.286.286-.286.286-.286.571v6.859c0 .286 0 .286.286.572 0 .285 0 .285.286.285h6.571c.286 0 .571 0 .571-.285.286-.286.286-.286.286-.572z"/></g><g><path fill="#fff" d="M211.263 578.65c2 0 3.428 1.429 3.428 3.43v96.02c0 2.001-1.428 3.43-3.428 3.43h-61.714c-2 0-3.429-1.429-3.429-3.43v-96.02c0-2.001 1.429-3.43 3.429-3.43zm.857 3.144c0-.286-.286-.286-.286-.572-.285-.286-.285-.286-.571-.286h-61.714c-.286 0-.572.286-.572.286-.286.286-.286.286-.286.572v96.02c0 .286 0 .572.286.572.286.286.286.286.572.286h61.714c.286 0 .286 0 .571-.286.286-.286.286-.286.286-.571z"/></g><g><path fill="#fff" d="M166.116 605.8c1.714 0 3.428 1.715 3.428 3.43v6.858c0 2-1.428 3.43-3.428 3.43h-6.857c-2 0-3.429-1.43-3.429-3.43v-6.859c0-2 1.429-3.429 3.429-3.429zm.857 10.288v-6.859c0-.285 0-.571-.286-.571-.286-.286-.286-.286-.571-.286h-6.857s-.286 0-.286.286c-.286.286-.286.286-.286.571v6.859c0 .286 0 .572.286.572 0 .285 0 .285.286.285h6.571c.286 0 .571 0 .571-.286.286-.285.286-.285.286-.571z"/></g><g><path fill="#fff" d="M201.836 605.8c1.714 0 3.428 1.715 3.428 3.43v6.858c0 2-1.428 3.43-3.428 3.43h-6.857c-2 0-3.429-1.43-3.429-3.43v-6.859c0-2 1.429-3.429 3.429-3.429zm.571 3.43c0-.286 0-.572-.286-.572-.285-.286-.285-.286-.571-.286h-6.857c-.286 0-.572 0-.572.286-.285.286-.285.286-.285.571v6.859c0 .286 0 .572.285.572.286.285.286.285.572.285h6.857c.286 0 .571 0 .571-.285.286-.286.286-.286.286-.572z"/></g><g><path fill="#fff" d="M183.836 588.94c2 0 3.428 1.429 3.428 3.43v6.858c0 2-1.428 3.43-3.428 3.43h-6.857c-2 0-3.429-1.43-3.429-3.43v-6.859c0-2 1.429-3.429 3.429-3.429zm.857 3.43c0-.286 0-.286-.286-.572s-.286-.286-.571-.286h-6.857c-.286 0-.572.286-.572.286-.286.286-.286.286-.286.571v6.859c0 .286 0 .286.286.572.286.285.286.285.572.285h6.857c.285 0 .571-.285.571-.285.286-.286.286-.286.286-.572z"/></g><g><path fill="#fff" d="M183.836 605.8c2 0 3.428 1.715 3.428 3.43v6.858c0 2-1.428 3.43-3.428 3.43h-6.857c-2 0-3.429-1.43-3.429-3.43v-6.859c0-2 1.429-3.429 3.429-3.429zm.857 3.43c0-.286 0-.572-.286-.572-.286-.286-.286-.286-.571-.286h-6.857c-.286 0-.572 0-.572.286-.286.286-.286.286-.286.571v6.859c0 .286 0 .572.286.572.286.285.286.285.572.285h6.857c.285 0 .571 0 .571-.285.286-.286.286-.286.286-.572z"/></g><g><path fill="#fff" d="M201.836 588.94c1.714 0 3.428 1.429 3.428 3.43v6.858c0 2-1.428 3.43-3.428 3.43h-6.857c-2 0-3.429-1.43-3.429-3.43v-6.859c0-2 1.429-3.429 3.429-3.429zm.571 3.43c0-.286 0-.286-.286-.572-.285-.286-.285-.286-.571-.286h-6.857c-.286 0-.572.286-.572.286-.285.286-.285.286-.285.571v6.859c0 .286 0 .286.285.572.286.285.286.285.572.285h6.857c.286 0 .571-.285.571-.285.286-.286.286-.286.286-.572z"/></g><g><path fill="#fff" d="M166.116 588.94c1.714 0 3.428 1.429 3.428 3.43v6.858c0 2-1.428 3.43-3.428 3.43h-6.857c-2 0-3.429-1.43-3.429-3.43v-6.859c0-2 1.429-3.429 3.429-3.429zm.857 10.288v-6.859c0-.285 0-.285-.286-.571s-.286-.286-.571-.286h-6.857l-.286.286c-.286.286-.286.286-.286.571v6.859c0 .286 0 .286.286.572 0 .285 0 .285.286.285h6.571c.286 0 .571-.286.571-.286.286-.285.286-.285.286-.571z"/></g><g><path fill="#fff" d="M183.836 622.95c2 0 3.428 1.715 3.428 3.43v6.858c0 2-1.428 3.43-3.428 3.43h-6.857c-2 0-3.429-1.43-3.429-3.43v-6.859c0-2 1.429-3.429 3.429-3.429zm.857 3.43c0-.286 0-.286-.286-.572s-.286-.286-.571-.286h-6.857c-.286 0-.572.286-.572.286-.286.286-.286.286-.286.571v6.859c0 .286 0 .286.286.572.286.285.286.285.572.285h6.857c.285 0 .571 0 .571-.285.286-.286.286-.286.286-.572z"/></g></g><g><path fill="#fff" d="M583.543 599.226c.857 0 1.714.857 1.714 1.715v71.444c0 2-1.428 3.43-3.428 3.43h-96c-2 0-3.429-1.715-3.429-3.43v-71.444c0-.858.857-1.715 1.714-1.715zM548.4 588.938a2.561 2.561 0 0 1 2.571 2.572v4.858H548.4v-4.858h-28.857v4.858h-2.857v-4.858c0-1.429 1.428-2.572 2.571-2.572zm4-4.858c2.286 0 4 2 4 4v8.288h-2.857v-8.287c0-.286-.286-.857-.286-.857-.286-.286-.571-.286-.857-.286h-37.143c-.286 0-.857.286-.857.286-.286.285-.286.571-.286.857v8.287h-2.857v-8.287c0-2.286 2-4.001 4-4.001zm-18.571 46.01c2.571 0 4.571 2 4.571 4.572s-2 4.573-4.571 4.573c-2.572 0-4.572-2-4.572-4.572.286-2.572 2.286-4.573 4.572-4.573zm1.428 3.144c-.286-.286-.857-.572-1.143-.572-.571 0-.857.286-1.143.572-.285.285-.571.857-.571 1.143 0 .571.286.857.571 1.143.286.286.858.571 1.143.571.572 0 .857-.285 1.143-.571.286-.286.572-.857.572-1.143-.286-.572-.286-.858-.572-1.143zm47.429-.858l-48.572 14.003-48.571-14.003v40.01c0 .285 0 .285.286.57.285.286.285.286.571.286h96c.286 0 .286 0 .571-.285.286 0 .286-.286.286-.572v-40.009zm-97.429-2.857l48.572 14.003 48.571-14.003v-26.864c0-.285 0-.285-.286-.285 0-.286-.285-.286-.285-.286h-96c-.286 0-.286 0-.572.286l-.286.285v26.864z"/></g><g><path fill="#fff" d="M564.69 837.848c-1.143-1.715-2.571-4.287-3.429-6.859-4-12.574 9.429-19.719-4-37.722l-2.571-2.858c-5.143-5.43-16-8.574-24.286-6.573-2.857.571-5.143 1.715-7.428 2.858-2.857 1.714-3.715 2.572-5.715 4.572-3.142 3.715-2 1.715-4.571 6.287-2.286 4.001-9.714 12.86-12.286 13.717-1.714.286-2.857-.571-2-2.572.572-.571 2.572-2 3.143-2.571l7.143-8.288c2.857-4.572 4.571-8.288 9.429-11.717 14.571-10.574 34.571-7.43 44 7.43 10.571 16.29.857 25.434 2.285 34.294 1.429 8.859 8 10.002 7.143 13.717-2.857 1.143-4.857-1.715-6.857-3.715zm-22.286-3.144c1.143-3.43 4.572-2.572 3.143 1.429-.857 2.572-.857 5.144-.286 8.002 1.429 5.715 5.143 8.002 8.572 10.288.286 7.716-16.286-5.43-11.429-19.719zm-20.857 20.29c2.286-2 6.572-5.43 9.429-6.287 6.285-1.715 9.714 4.287 10.857 9.43.286 1.43.286 3.144-1.714 2.859-2.572-.572-2-8.574-6.572-9.145-2-.286-6 2.286-7.143 3.143-4.857 3.715-3.714 4.001-6.285 3.144-.286-1.715 0-2.572 1.428-3.144zm54.857-34.865c-2 4.859-.571 12.86-5.143 11.432-1.428-3.716 4.572-10.86.286-26.578-1.143-4.286-2.857-6.287-1.429-7.716 4-3.715 5.43 13.432 6.286 16.004zm-71.143 23.149c5.143-3.716 6.286-5.144 10.572-8.574 1.714-1.143 3.143-3.143 4.571-4.572 4.286-4.287 4.857-4.858 8.857-10.002 3.429-4.287 6.858-11.431 8.858-8.288 1.428 2.572-14.572 20.004-16 21.433-1.715 1.715-3.429 2.858-5.143 4.573-2.286 2.572-10.286 8.573-13.143 10.573-1.143.572-1.714.858-3.143.286-.571-2.858 2.571-4 4.571-5.43zm59.429-68.873c-7.714-7.144-22-11.43-32.857-10.002-8.857 1.143-20.286 6.001-25.714 12.003-1.143.857-2.572 2.857-3.429 3.143-4.857 1.715-2.286-6.287 12.571-14.003 15.715-8.287 34.858-6.287 48.858 4.001 2.857 2 6.285 4 4.857 6.573-2.286.571-3.143-.857-4.286-1.715zm-9.714 4.858c-11.143-6.858-23.715-7.43-35.715-.857-6 3.144-12.285 9.43-16 14.575-.857.857-2.571 4-3.142 4.572-2 2.286-4-.286-2.286-2.858 3.428-5.715 10-12.574 14.857-16.289 18-13.717 40-9.43 54.286 6.001 2.285 2.572 6.571 6.288 4.857 8.86-3.714.285-5.143-6.86-16.857-14.004zm-55.429 42.867c2.286-1.715 6.857-5.43 8.286-7.43 4.286-5.43 4.857-5.43 8.286-12.289 8.857-16.86 30.571-15.717 38.571-2 6.571 11.431-2.857 23.72 1.714 35.15 2.857 7.145 8.572 10.288 9.429 11.146.857 1.143.286 2.572-1.429 2.572-2.571 0-13.714-8.86-12.857-23.148.572-10.86 6.857-22.577-6.857-30.578-4.571-2.572-11.143-3.144-16.286-.858-10.857 4.859-8 12.86-24 27.435-2.857 2.858-4 3.715-6.285 3.144-.572-2.287-.286-2.287 1.428-3.144zm-2.857 14.575c1.143-1.144 2.286-1.715 4-2.858 1.143-.857 2-1.43 3.143-2.286 2.286-1.715 4.286-3.43 6.286-5.144 1.142-.858 1.714-1.715 2.857-2.858 1.143-1.143 1.428-1.43 2.571-2.858.857-.857 1.714-1.715 2.572-2.858 4-5.715 8.571-13.145 12.285-15.717 5.715-4.001 13.429-1.144 16.286 2.857 7.429 10.574-8.286 27.435-13.714 33.436l-2.857 2.858c-1.143.857-1.715 2-2.858 2.858-4.571 4-8.285 6.573-12.857 10.002-3.428 2.572-5.714-.286-1.428-3.144 2.571-1.714 9.714-7.144 11.714-9.144.857-1.144 1.714-1.715 2.857-2.572 2.286-2 3.143-3.43 5.143-5.43 3.143-3.144 6.571-8.574 8.857-12.289 1.143-2 2.572-4.572 3.143-7.144 2.571-9.145-9.429-15.146-16-6.001-3.143 4.286-5.429 8.573-8.857 12.288-1.714 2-3.429 4-5.143 5.716l-11.143 9.716c-2 1.143-4.857 4.287-6.857 2z"/></g><g><path fill="#fff" d="M769.259 837.848v5.144c-12.572 3.43-25.143 3.43-37.429 0v-2-1.143-2c0-8.288 4.286-17.433 12.857-17.719a13.279 13.279 0 0 0 6 1.429c2 0 4-.572 6-1.429 9.714 0 12.572 9.43 12.572 17.718zm-2.286 3.144v-3.144c0-4-.857-8.573-2.857-11.43-1.429-2.001-3.429-3.144-6.572-3.43-.857.286-2 .571-2.857.857-1.143.286-2.571.286-3.714.286-1.143 0-2.572 0-3.714-.286-.858-.286-2-.571-2.858-.857-2.571.286-4.857 1.714-6.285 3.715-2 3.143-3.143 7.144-3.143 11.145v3.144c5.143 1.429 10.571 2 15.714 2 5.429 0 10.572-.571 16-2z"/></g><g><path fill="#fff" d="M748.404 784.693h-55.428l-10.286 12.289V750.4h19.143v-7.43h66.571v48.01l-10.285-12.288h-9.715zm-43.714-34.007h44v25.434h10.857l6.286 7.43v-37.722H704.69zm-13.143 31.721h54v-28.863h-60.286v36.293z"/></g><g><path fill="#fff" d="M718.979 837.848v5.144c-12.858 3.43-25.143 3.43-37.429 0v-2-1.143-2c0-8.288 4.286-17.433 12.857-17.719a13.279 13.279 0 0 0 6 1.429c2 0 4-.572 6-1.429 9.714 0 12.572 9.43 12.572 17.718zm-2.572 3.144v-3.144c0-4-.857-8.573-2.857-11.43-1.429-2.001-3.714-3.144-6.571-3.43-.858.286-2 .571-2.858.857-1.142.286-2.571.286-3.714.286-1.143 0-2.571 0-3.714-.286-.857-.286-2-.571-2.857-.857-2.857.286-4.857 1.714-6.286 3.715-2 3.143-3.143 7.144-3.143 11.145v3.144c5.143 1.429 10.572 2 15.714 2 5.429 0 10.572-.571 16-2z"/></g><g><path fill="#fff" d="M762.69 806.703c0 6.572-5.429 12.002-12 12.002s-12-5.43-12-12.002c0-6.573 5.429-12.003 12-12.003s12 5.144 12 12.003zm-2.857-.286c0-2.572-.857-4.858-2.571-6.573-1.715-1.429-4-2.572-6.572-2.572-2.571 0-4.857.857-6.571 2.572-1.715 1.715-2.572 4-2.572 6.573 0 2.572.857 4.858 2.572 6.573 1.714 1.714 4 2.572 6.571 2.572 2.571 0 4.857-.858 6.571-2.572 1.43-1.715 2.572-4.001 2.572-6.573z"/></g><g><path fill="#fff" d="M700.4 794.41c6.571 0 12 5.43 12 12.003 0 6.572-5.429 12.002-12 12.002s-12-5.43-12-12.002c0-6.573 5.429-11.717 12-12.003zm6.571 5.43c-1.714-1.43-4-2.572-6.571-2.572-2.571 0-4.857.857-6.571 2.572-1.715 1.714-2.572 4-2.572 6.573 0 2.572.857 4.858 2.572 6.572 1.714 1.715 4 2.572 6.571 2.572 2.571 0 4.857-.857 6.571-2.572 1.429-1.714 2.572-4 2.572-6.572 0-2.287-1.143-4.573-2.572-6.573z"/></g></g></g></g></svg>