<svg xmlns="http://www.w3.org/2000/svg" width="668" height="668" viewBox="0 0 668 668"><defs><linearGradient id="j7t1a" x1="584.31" x2="83.68" y1="83.68" y2="584.31" gradientUnits="userSpaceOnUse"><stop offset="0" stop-color="#3e3f43"/><stop offset="1" stop-color="#151517"/></linearGradient><filter id="j7t1b" width="200%" height="200%" x="-50%" y="-50%"><feGaussianBlur in="SourceGraphic" result="FeGaussianBlur1030Out" stdDeviation="10 10"/></filter><mask id="j7t1c"><path fill="#fff" d="M584.312 534.312c0 27.614-22.386 50-50 50H133.68c-27.614 0-50-22.386-50-50V133.68c0-27.614 22.386-50 50-50h400.632c27.614 0 50 22.386 50 50z"/></mask><linearGradient id="j7t1d" x1="560.54" x2="106.95" y1="106.57" y2="560.16" gradientUnits="userSpaceOnUse"><stop offset="0" stop-color="#3e3f43"/><stop offset="1" stop-color="#151517"/></linearGradient><filter id="j7t1e" width="200%" height="200%" x="-50%" y="-50%"><feGaussianBlur in="SourceGraphic" result="FeGaussianBlur1043Out" stdDeviation="10 10"/></filter><mask id="j7t1f"><path fill="#fff" d="M560.542 510.162c0 27.614-22.386 50-50 50H156.95c-27.615 0-50-22.386-50-50V156.57c0-27.615 22.385-50 50-50h353.592c27.614 0 50 22.385 50 50z"/></mask><linearGradient id="j7t1g" x1="538.23" x2="129.87" y1="128.33" y2="536.69" gradientUnits="userSpaceOnUse"><stop offset="0" stop-color="#f97700"/><stop offset="1" stop-color="#f83b00"/></linearGradient><filter id="j7t1h" width="200%" height="200%" x="-50%" y="-50%"><feGaussianBlur in="SourceGraphic" result="FeGaussianBlur1056Out" stdDeviation="10 10"/></filter><mask id="j7t1i"><path fill="#fff" d="M538.235 486.695c0 27.614-22.386 50-50 50H179.87c-27.614 0-50-22.386-50-50V178.33c0-27.614 22.386-50 50-50h308.365c27.614 0 50 22.386 50 50z"/></mask></defs><g><g transform="rotate(135 334 334)"><path fill="url(#j7t1a)" d="M584.312 534.312c0 27.614-22.386 50-50 50H133.68c-27.614 0-50-22.386-50-50V133.68c0-27.614 22.386-50 50-50h400.632c27.614 0 50 22.386 50 50z"/><path fill-opacity=".5" d="M-20 692V-24h708v716zm604.312-554.32c0-27.614-22.386-50-50-50H133.68c-27.614 0-50 22.386-50 50v400.632c0 27.614 22.386 50 50 50h400.632c27.614 0 50-22.386 50-50z" filter="url(#j7t1b)" mask="url(&quot;#j7t1c&quot;)"/></g><g transform="rotate(135 333.5 333.5)"><path fill="url(#j7t1d)" d="M560.542 510.162c0 27.614-22.386 50-50 50H156.95c-27.615 0-50-22.386-50-50V156.57c0-27.615 22.385-50 50-50h353.592c27.614 0 50 22.385 50 50z"/><path fill-opacity=".5" d="M13 658V9h641v649zm547.542-497.43c0-27.615-22.386-50-50-50H156.95c-27.615 0-50 22.385-50 50v353.592c0 27.614 22.385 50 50 50h353.592c27.614 0 50-22.386 50-50z" filter="url(#j7t1e)" mask="url(&quot;#j7t1f&quot;)"/></g><g transform="rotate(135 334.5 332.5)"><path fill="url(#j7t1g)" d="M538.235 486.695c0 27.614-22.386 50-50 50H179.87c-27.614 0-50-22.386-50-50V178.33c0-27.614 22.386-50 50-50h308.365c27.614 0 50 22.386 50 50z"/><path fill-opacity=".5" d="M46 625V40h577v585zm492.235-442.67c0-27.614-22.386-50-50-50H179.87c-27.614 0-50 22.386-50 50v308.365c0 27.614 22.386 50 50 50h308.365c27.614 0 50-22.386 50-50z" filter="url(#j7t1h)" mask="url(&quot;#j7t1i&quot;)"/></g></g></svg>