<svg xmlns="http://www.w3.org/2000/svg" width="29" height="36" viewBox="0 0 29 36"><g><g><path fill="#fff" d="M0 0h25.448v3.103h3.104V36H3.103v-3.103H0zm4.345 32.897v1.862H27.31V4.345h-1.862v28.552zM1.24 1.24v30.414h22.966V1.241zm9.902 18.775c0-.715.125-1.337.377-1.867.251-.543.682-1.006 1.29-1.39.24-.16.51-.325.815-.497.318-.172.616-.37.894-.596.278-.238.51-.516.695-.834.199-.331.298-.722.298-1.172 0-.37-.073-.695-.218-.973a1.959 1.959 0 0 0-.537-.715 2.136 2.136 0 0 0-.774-.437 2.65 2.65 0 0 0-.914-.159 2.88 2.88 0 0 0-.953.159 3.099 3.099 0 0 0-.815.397 3.305 3.305 0 0 0-.675.616 3.644 3.644 0 0 0-.496.715l-1.172-.775c.172-.41.404-.774.695-1.092a4.1 4.1 0 0 1 .993-.795c.37-.225.761-.39 1.172-.496.424-.12.854-.179 1.29-.179.49 0 .974.08 1.45.238.477.146.901.378 1.272.696.37.317.669.715.894 1.191.225.477.337 1.04.337 1.689 0 .503-.072.933-.218 1.29a3.075 3.075 0 0 1-.536.934c-.225.265-.49.497-.795.695-.304.199-.622.39-.953.576a19.97 19.97 0 0 0-.715.417c-.239.146-.45.325-.636.537a2.633 2.633 0 0 0-.437.735c-.106.29-.159.655-.159 1.092zm.04 4.19v-2.303h1.469v2.304z"/></g></g></svg>